<?xml version="1.0" encoding="UTF-8" standalone="no"?>
<!DOCTYPE svg PUBLIC "-//W3C//DTD SVG 1.1//EN" "http://www.w3.org/Graphics/SVG/1.1/DTD/svg11.dtd">
<svg version="1.1" xmlns="http://www.w3.org/2000/svg" xmlns:xlink="http://www.w3.org/1999/xlink" preserveAspectRatio="xMidYMid meet" viewBox="0 0 640 640" width="640" height="640"><defs><path d="M345.43 11.03L357.94 12.3L370.29 14.06L382.49 16.3L394.51 19.01L406.35 22.18L418 25.8L429.45 29.86L440.68 34.36L451.7 39.27L462.48 44.59L473.02 50.32L483.31 56.44L493.34 62.93L503.1 69.8L512.58 77.03L521.76 84.61L530.65 92.53L539.22 100.78L547.47 109.35L555.39 118.24L562.97 127.42L570.2 136.9L577.07 146.66L583.56 156.69L589.68 166.98L595.41 177.52L600.73 188.3L605.64 199.32L610.14 210.55L614.2 222L617.82 233.65L620.99 245.49L623.7 257.51L625.94 269.71L627.7 282.06L628.97 294.57L629.74 307.22L630 320L629.74 332.78L628.97 345.43L627.7 357.94L625.94 370.29L623.7 382.49L620.99 394.51L617.82 406.35L614.2 418L610.14 429.45L605.64 440.68L600.73 451.7L595.41 462.48L589.68 473.02L583.56 483.31L577.07 493.34L570.2 503.1L562.97 512.58L555.39 521.76L547.47 530.65L539.22 539.22L530.65 547.47L521.76 555.39L512.58 562.97L503.1 570.2L493.34 577.07L483.31 583.56L473.02 589.68L462.48 595.41L451.7 600.73L440.68 605.64L429.45 610.14L418 614.2L406.35 617.82L394.51 620.99L382.49 623.7L370.29 625.94L357.94 627.7L345.43 628.97L332.78 629.74L320 630L307.22 629.74L294.57 628.97L282.06 627.7L269.71 625.94L257.51 623.7L245.49 620.99L233.65 617.82L222 614.2L210.55 610.14L199.32 605.64L188.3 600.73L177.52 595.41L166.98 589.68L156.69 583.56L146.66 577.07L136.9 570.2L127.42 562.97L118.24 555.39L109.35 547.47L100.78 539.22L92.53 530.65L84.61 521.76L77.03 512.58L69.8 503.1L62.93 493.34L56.44 483.31L50.32 473.02L44.59 462.48L39.27 451.7L34.36 440.68L29.86 429.45L25.8 418L22.18 406.35L19.01 394.51L16.3 382.49L14.06 370.29L12.3 357.94L11.03 345.43L10.26 332.78L10 320L10.26 307.22L11.03 294.57L12.3 282.06L14.06 269.71L16.3 257.51L19.01 245.49L22.18 233.65L25.8 222L29.86 210.55L34.36 199.32L39.27 188.3L44.59 177.52L50.32 166.98L56.44 156.69L62.93 146.66L69.8 136.9L77.03 127.42L84.61 118.24L92.53 109.35L100.78 100.78L109.35 92.53L118.24 84.61L127.42 77.03L136.9 69.8L146.66 62.93L156.69 56.44L166.98 50.32L177.52 44.59L188.3 39.27L199.32 34.36L210.55 29.86L222 25.8L233.65 22.18L245.49 19.01L257.51 16.3L269.71 14.06L282.06 12.3L294.57 11.03L307.22 10.26L320 10L332.78 10.26L345.43 11.03ZM379.55 400L379.33 400.01L379.1 400.01L378.88 400.02L378.65 400.03L378.43 400.05L378.2 400.06L377.98 400.07L377.75 400.09L377.53 400.11L377.3 400.13L377.08 400.15L376.86 400.18L376.63 400.2L376.41 400.23L376.18 400.26L375.96 400.29L375.74 400.33L375.52 400.36L375.29 400.4L375.07 400.43L374.85 400.47L374.63 400.51L374.41 400.56L374.18 400.6L373.96 400.64L373.74 400.69L373.52 400.74L373.3 400.79L373.08 400.84L372.86 400.9L372.65 400.95L372.43 401.01L372.21 401.06L371.99 401.12L371.77 401.18L371.56 401.25L371.34 401.31L371.13 401.38L369.91 401.77L368.7 402.15L367.48 402.52L366.26 402.89L365.03 403.25L363.8 403.61L362.57 403.95L361.33 404.29L360.09 404.62L358.85 404.94L357.6 405.25L356.35 405.55L355.09 405.85L353.84 406.13L352.58 406.41L351.31 406.68L350.04 406.94L348.77 407.19L347.5 407.43L346.22 407.66L344.94 407.88L343.65 408.09L342.37 408.29L341.07 408.48L339.78 408.66L338.48 408.82L337.18 408.98L335.88 409.13L334.57 409.27L333.26 409.39L331.95 409.5L330.63 409.61L329.31 409.7L327.99 409.78L326.67 409.84L325.34 409.9L324.01 409.94L322.68 409.97L321.34 409.99L320 410L318.66 409.99L317.33 409.97L315.99 409.94L314.66 409.9L313.34 409.84L312.01 409.78L310.7 409.7L309.38 409.61L308.07 409.5L306.76 409.39L305.45 409.27L304.15 409.13L302.84 408.98L301.55 408.82L300.25 408.66L298.96 408.48L297.67 408.29L296.39 408.09L295.11 407.88L293.83 407.66L292.55 407.43L291.28 407.19L290.01 406.94L288.74 406.68L287.48 406.41L286.22 406.13L284.96 405.85L283.71 405.55L282.45 405.25L281.21 404.94L279.96 404.62L278.72 404.29L277.48 403.95L276.24 403.61L275 403.25L273.77 402.89L272.54 402.52L271.32 402.15L270.1 401.77L268.88 401.38L268.66 401.31L268.44 401.25L268.23 401.18L268.01 401.12L267.79 401.06L267.57 401.01L267.35 400.95L267.14 400.9L266.92 400.84L266.7 400.79L266.48 400.74L266.26 400.69L266.04 400.64L265.82 400.6L265.59 400.56L265.37 400.51L265.15 400.47L264.93 400.43L264.71 400.4L264.48 400.36L264.26 400.33L264.04 400.29L263.82 400.26L263.59 400.23L263.37 400.2L263.14 400.18L262.92 400.15L262.7 400.13L262.47 400.11L262.25 400.09L262.02 400.07L261.8 400.06L261.57 400.05L261.35 400.03L261.12 400.02L260.9 400.01L260.67 400.01L260.45 400L260.22 400L260 400L255.99 400.06L252.02 400.23L248.07 400.51L244.16 400.9L240.28 401.4L236.43 402L232.63 402.71L228.86 403.53L225.13 404.44L221.44 405.46L217.8 406.57L214.2 407.78L210.64 409.09L207.13 410.49L203.67 411.98L200.26 413.57L196.9 415.24L193.59 417L190.34 418.85L187.14 420.78L184 422.8L180.91 424.89L177.89 427.07L174.92 429.32L172.02 431.65L169.18 434.06L166.41 436.54L163.7 439.09L161.06 441.71L158.49 444.4L155.99 447.16L153.56 449.98L151.2 452.87L148.92 455.82L146.71 458.83L144.59 461.9L142.54 465.03L140.57 468.22L138.68 471.46L136.88 474.75L140.22 478.61L143.64 482.41L147.14 486.13L150.71 489.77L154.37 493.34L158.1 496.84L161.9 500.25L165.77 503.58L169.72 506.84L173.73 510.01L177.82 513.09L181.97 516.1L186.18 519.01L190.46 521.84L194.81 524.58L199.21 527.22L203.68 529.78L208.2 532.24L212.78 534.6L217.42 536.88L222.12 539.05L226.86 541.12L231.66 543.1L236.51 544.97L241.41 546.74L246.36 548.4L251.36 549.96L256.4 551.41L261.49 552.76L266.62 553.99L271.79 555.12L277 556.13L282.25 557.02L287.54 557.8L292.87 558.47L298.23 559.02L303.63 559.45L309.05 559.75L314.51 559.94L320 560L325.49 559.94L330.95 559.75L336.37 559.45L341.77 559.02L347.13 558.47L352.46 557.8L357.75 557.02L363 556.13L368.21 555.12L373.38 553.99L378.51 552.76L383.6 551.41L388.64 549.96L393.64 548.4L398.59 546.74L403.49 544.97L408.34 543.1L413.14 541.12L417.88 539.05L422.58 536.88L427.22 534.6L431.8 532.24L436.32 529.78L440.79 527.22L445.19 524.58L449.54 521.84L453.82 519.01L458.03 516.1L462.18 513.09L466.27 510.01L470.28 506.84L474.23 503.58L478.1 500.25L481.9 496.84L485.63 493.34L489.29 489.77L492.86 486.13L496.36 482.41L499.78 478.61L503.13 474.75L501.32 471.46L499.43 468.22L497.46 465.03L495.41 461.9L493.29 458.83L491.08 455.82L488.8 452.87L486.44 449.98L484.01 447.16L481.51 444.4L478.94 441.71L476.3 439.09L473.59 436.54L470.82 434.06L467.98 431.65L465.08 429.32L462.11 427.07L459.09 424.89L456 422.8L452.86 420.78L449.66 418.85L446.41 417L443.1 415.24L439.74 413.57L436.33 411.98L432.87 410.49L429.36 409.09L425.8 407.78L422.2 406.57L418.56 405.46L414.87 404.44L411.14 403.53L407.37 402.71L403.57 402L399.72 401.4L395.84 400.9L391.93 400.51L387.98 400.23L384.01 400.06L380 400L379.78 400L379.55 400ZM310.98 130.36L306.54 130.82L302.16 131.44L297.83 132.23L293.57 133.2L289.37 134.32L285.23 135.61L281.17 137.05L277.18 138.64L273.28 140.39L269.45 142.28L265.71 144.31L262.06 146.48L258.5 148.79L255.04 151.22L251.67 153.79L248.41 156.48L245.26 159.29L242.22 162.22L239.29 165.26L236.48 168.41L233.79 171.67L231.22 175.04L228.79 178.5L226.48 182.06L224.31 185.71L222.28 189.45L220.39 193.28L218.64 197.18L217.05 201.17L215.61 205.23L214.32 209.37L213.2 213.57L212.23 217.83L211.44 222.16L210.82 226.54L210.36 230.98L210.09 235.47L210 240L210.09 244.53L210.36 249.02L210.82 253.46L211.44 257.84L212.23 262.17L213.2 266.43L214.32 270.63L215.61 274.77L217.05 278.83L218.64 282.82L220.39 286.72L222.28 290.55L224.31 294.29L226.48 297.94L228.79 301.5L231.22 304.96L233.79 308.33L236.48 311.59L239.29 314.74L242.22 317.78L245.26 320.71L248.41 323.52L251.67 326.21L255.04 328.78L258.5 331.21L262.06 333.52L265.71 335.69L269.45 337.72L273.28 339.61L277.18 341.36L281.17 342.95L285.23 344.39L289.37 345.68L293.57 346.8L297.83 347.77L302.16 348.56L306.54 349.18L310.98 349.64L315.47 349.91L320 350L324.53 349.91L329.02 349.64L333.46 349.18L337.84 348.56L342.17 347.77L346.43 346.8L350.63 345.68L354.77 344.39L358.83 342.95L362.82 341.36L366.72 339.61L370.55 337.72L374.29 335.69L377.94 333.52L381.5 331.21L384.96 328.78L388.33 326.21L391.59 323.52L394.74 320.71L397.78 317.78L400.71 314.74L403.52 311.59L406.21 308.33L408.78 304.96L411.21 301.5L413.52 297.94L415.69 294.29L417.72 290.55L419.61 286.72L421.36 282.82L422.95 278.83L424.39 274.77L425.68 270.63L426.8 266.43L427.77 262.17L428.56 257.84L429.18 253.46L429.64 249.02L429.91 244.53L430 240L429.91 235.47L429.64 230.98L429.18 226.54L428.56 222.16L427.77 217.83L426.8 213.57L425.68 209.37L424.39 205.23L422.95 201.17L421.36 197.18L419.61 193.28L417.72 189.45L415.69 185.71L413.52 182.06L411.21 178.5L408.78 175.04L406.21 171.67L403.52 168.41L400.71 165.26L397.78 162.22L394.74 159.29L391.59 156.48L388.33 153.79L384.96 151.22L381.5 148.79L377.94 146.48L374.29 144.31L370.55 142.28L366.72 140.39L362.82 138.64L358.83 137.05L354.77 135.61L350.63 134.32L346.43 133.2L342.17 132.23L337.84 131.44L333.46 130.82L329.02 130.36L324.53 130.09L320 130L315.47 130.09L310.98 130.36Z" id="cPpYdpYk3"></path></defs><g><g><g><use xlink:href="#cPpYdpYk3" opacity="1" fill="#3e4658" fill-opacity="1"></use><g><use xlink:href="#cPpYdpYk3" opacity="1" fill-opacity="0" stroke="#000000" stroke-width="1" stroke-opacity="0"></use></g></g></g></g></svg>