<?xml version="1.0" encoding="UTF-8" standalone="no"?>
<!DOCTYPE svg PUBLIC "-//W3C//DTD SVG 1.1//EN" "http://www.w3.org/Graphics/SVG/1.1/DTD/svg11.dtd">
<svg version="1.1" xmlns="http://www.w3.org/2000/svg" xmlns:xlink="http://www.w3.org/1999/xlink" preserveAspectRatio="xMidYMid meet" viewBox="0 0 640 640" width="22" height="22"><defs><path d="M373.33 266.67C373.33 137.27 373.33 65.38 373.33 51C373.33 22.83 349.5 0 320 0C290.5 0 266.67 22.83 266.67 51C266.67 65.38 266.67 137.27 266.67 266.67C137.27 266.67 65.38 266.67 51 266.67C22.83 266.67 0 290.5 0 320C0 349.5 22.83 373.33 51 373.33C65.38 373.33 137.27 373.33 266.67 373.33C266.67 502.73 266.67 574.62 266.67 589C266.67 617.17 290.5 640 320 640C349.5 640 373.33 617.17 373.33 589C373.33 574.62 373.33 502.73 373.33 373.33C502.73 373.33 574.62 373.33 589 373.33C617.17 373.33 640 349.5 640 320C640 290.5 617.17 266.67 589 266.67C560.24 266.67 488.36 266.67 373.33 266.67Z" id="b1HnKuNUdb"></path></defs><g><g><g><use xlink:href="#b1HnKuNUdb" opacity="1" fill="#0a0f19" fill-opacity="1"></use><g><use xlink:href="#b1HnKuNUdb" opacity="1" fill-opacity="0" stroke="#000000" stroke-width="1" stroke-opacity="0"></use></g></g></g></g></svg>