<?xml version="1.0" encoding="UTF-8" standalone="no"?>
<!DOCTYPE svg PUBLIC "-//W3C//DTD SVG 1.1//EN" "http://www.w3.org/Graphics/SVG/1.1/DTD/svg11.dtd">
<svg version="1.1" xmlns="http://www.w3.org/2000/svg" xmlns:xlink="http://www.w3.org/1999/xlink" preserveAspectRatio="xMidYMid meet" viewBox="0 0 640 640" width="640" height="640"><defs><path d="M80 640C35.84 640 0 604.16 0 560C0 512 0 128 0 80C0 35.84 35.84 0 80 0C128 0 512 0 560 0C604.16 0 640 35.84 640 80C640 128 640 512 640 560C640 604.16 604.16 640 560 640C464 640 128 640 80 640Z" id="b37WGcODeP"></path><path d="M245.76 482.56C396.64 482.56 479.2 357.44 479.2 249.12C479.2 245.6 479.2 242.08 479.04 238.56C495.04 227.04 508.96 212.48 520 196C505.28 202.56 489.44 206.88 472.8 208.96C489.76 198.88 502.72 182.72 508.96 163.52C493.12 172.96 475.52 179.68 456.8 183.36C441.76 167.36 420.48 157.44 396.96 157.44C351.68 157.44 314.88 194.24 314.88 239.52C314.88 245.92 315.68 252.16 316.96 258.24C248.8 254.88 188.32 222.08 147.84 172.48C140.8 184.64 136.8 198.72 136.8 213.76C136.8 242.24 151.36 267.36 173.28 282.08C159.84 281.6 147.2 277.92 136.16 271.84C136.16 272.16 136.16 272.48 136.16 272.96C136.16 312.64 164.48 345.92 201.92 353.44C195.04 355.36 187.84 356.32 180.32 356.32C175.04 356.32 169.92 355.84 164.96 354.88C175.36 387.52 205.76 411.2 241.6 411.84C213.44 433.92 178.08 447.04 139.68 447.04C133.12 447.04 126.56 446.72 120.16 445.92C156.32 468.96 199.52 482.56 245.76 482.56" id="d210qtMjHE"></path></defs><g><g><g><use xlink:href="#b37WGcODeP" opacity="1" fill="#ffffff" fill-opacity="1"></use><g><use xlink:href="#b37WGcODeP" opacity="1" fill-opacity="0" stroke="#000000" stroke-width="1" stroke-opacity="0"></use></g></g><g><use xlink:href="#d210qtMjHE" opacity="1" fill="#141e33" fill-opacity="1"></use><g><use xlink:href="#d210qtMjHE" opacity="1" fill-opacity="0" stroke="#000000" stroke-width="1" stroke-opacity="0"></use></g></g></g></g></svg>