<?xml version="1.0" encoding="UTF-8" standalone="no"?>
<!DOCTYPE svg PUBLIC "-//W3C//DTD SVG 1.1//EN" "http://www.w3.org/Graphics/SVG/1.1/DTD/svg11.dtd">
<svg version="1.1" xmlns="http://www.w3.org/2000/svg" xmlns:xlink="http://www.w3.org/1999/xlink" preserveAspectRatio="xMidYMid meet" viewBox="0 0 640 640" width="25" height="25"><defs><path d="M64 12.8C35.84 12.8 12.8 35.84 12.8 64C12.8 115.2 12.8 524.8 12.8 576C12.8 604.16 35.84 627.2 64 627.2C115.2 627.2 524.8 627.2 576 627.2C604.16 627.2 627.2 604.16 627.2 576C627.2 524.8 627.2 115.2 627.2 64C627.2 35.84 604.16 12.8 576 12.8C473.6 12.8 115.2 12.8 64 12.8Z" id="eWmKs3TQ4"></path><path d="M460.8 224C477.44 213.76 492.8 190.72 499.2 172.8C486.4 180.48 472.32 190.72 458.24 195.84C457.22 194.82 449.02 186.62 448 185.6C433.92 170.24 419.84 160 396.8 160C353.28 160 320 193.28 320 236.8C320 241.92 320 245.76 321.28 249.6C321.15 249.6 320.13 249.6 320 249.6C243.2 249.6 192 232.96 153.6 185.6C147.2 197.12 140.8 209.92 140.8 224C140.8 250.88 157.44 273.92 179.2 288C166.4 288 151.04 281.6 140.8 275.2C140.8 313.6 194.56 357.12 230.4 364.8C217.6 377.6 171.52 366.08 166.4 364.8C176.64 395.52 208.64 414.72 243.2 416C216.32 436.48 184.32 448 147.2 448C140.8 448 134.4 448 128 446.72C162.56 468.48 211.2 480 256 480C400.64 480 473.6 366.08 473.6 262.4C473.6 258.56 473.6 253.44 473.6 249.6C488.96 238.08 501.76 222.72 512 207.36C497.92 213.76 476.16 221.44 460.8 224Z" id="kgPB1PI6c"></path></defs><g><g><g><use xlink:href="#eWmKs3TQ4" opacity="1" fill="#ffffff" fill-opacity="1"></use><g><use xlink:href="#eWmKs3TQ4" opacity="1" fill-opacity="0" stroke="#000000" stroke-width="1" stroke-opacity="0"></use></g></g><g><use xlink:href="#kgPB1PI6c" opacity="1" fill="#141e33" fill-opacity="1"></use><g><use xlink:href="#kgPB1PI6c" opacity="1" fill-opacity="0" stroke="#000000" stroke-width="1" stroke-opacity="0"></use></g></g></g></g></svg>