<?xml version="1.0" encoding="UTF-8" standalone="no"?>
<!DOCTYPE svg PUBLIC "-//W3C//DTD SVG 1.1//EN" "http://www.w3.org/Graphics/SVG/1.1/DTD/svg11.dtd">
<svg version="1.1" xmlns="http://www.w3.org/2000/svg" xmlns:xlink="http://www.w3.org/1999/xlink" preserveAspectRatio="xMidYMid meet" viewBox="0 0 640 640" width="20" height="20"><defs><path d="M473.36 157.52C473.36 70.66 404.33 0 319.5 0C234.66 0 165.63 70.67 165.63 157.52C165.63 244.39 234.66 315.05 319.5 315.05C404.34 315.05 473.36 244.38 473.36 157.52Z" id="a7IRufKjb"></path><path d="M473.72 303.42C418.68 385.94 329.93 388.33 320 388.33C310.06 388.33 221.32 385.94 166.29 303.45C161.46 296.21 152.21 292.59 143.23 294.41C23.73 318.76 -7.78 485.69 1.53 621.25C2.26 631.79 11.7 640 23.12 640C82.49 640 557.51 640 616.89 640C628.3 640 637.75 631.79 638.47 621.25C647.79 485.54 616.27 318.51 496.74 294.38C487.77 292.59 478.54 296.19 473.72 303.42Z" id="aNmCCxFhG"></path></defs><g><g><g><use xlink:href="#a7IRufKjb" opacity="1" fill="#ffffff" fill-opacity="1"></use><g><use xlink:href="#a7IRufKjb" opacity="1" fill-opacity="0" stroke="#000000" stroke-width="1" stroke-opacity="0"></use></g></g><g><use xlink:href="#aNmCCxFhG" opacity="1" fill="#ffffff" fill-opacity="1"></use><g><use xlink:href="#aNmCCxFhG" opacity="1" fill-opacity="0" stroke="#000000" stroke-width="1" stroke-opacity="0"></use></g></g></g></g></svg>