<?xml version="1.0" encoding="iso-8859-1"?>
<!-- Generator: Adobe Illustrator 19.0.0, SVG Export Plug-In . SVG Version: 6.00 Build 0)  -->
<svg version="1.1" id="Capa_1" xmlns="http://www.w3.org/2000/svg" xmlns:xlink="http://www.w3.org/1999/xlink" x="0px" y="0px"
	 viewBox="0 0 511.316 511.316" style="enable-background:new 0 0 511.316 511.316;" xml:space="preserve">
<g>
	<g>
		<path d="M251.905,107.855h-0.086c-2.2,0-3.947,1.787-3.947,3.995c0,2.208,1.825,3.995,4.033,3.995c2.2,0,3.995-1.787,3.995-3.995
			C255.9,109.642,254.105,107.855,251.905,107.855z"/>
	</g>
</g>
<g>
	<g>
		<path d="M243.916,91.877h-0.086c-2.2,0-3.947,1.787-3.947,3.995s1.825,3.994,4.033,3.994c2.2,0,3.995-1.786,3.995-3.994
			S246.116,91.877,243.916,91.877z"/>
	</g>
</g>
<g>
	<g>
		<path d="M235.927,67.908h-0.086c-2.2,0-3.948,1.787-3.948,3.995s1.826,3.995,4.034,3.995c2.2,0,3.995-1.787,3.995-3.995
			S238.127,67.908,235.927,67.908z"/>
	</g>
</g>
<g>
	<g>
		<path d="M259.894,83.887h-0.086c-2.199,0-3.947,1.787-3.947,3.995s1.825,3.994,4.033,3.994c2.201,0,3.995-1.786,3.995-3.994
			S262.094,83.887,259.894,83.887z"/>
	</g>
</g>
<g>
	<g>
		<path d="M219.948,91.877h-0.086c-2.2,0-3.948,1.787-3.948,3.995s1.826,3.994,4.034,3.994c2.2,0,3.995-1.786,3.995-3.994
			S222.148,91.877,219.948,91.877z"/>
	</g>
</g>
<g>
	<g>
		<path d="M267.885,243.674h-0.086c-2.201,0-3.948,1.786-3.948,3.994s1.825,3.995,4.034,3.995c2.199,0,3.994-1.787,3.994-3.995
			S270.084,243.674,267.885,243.674z"/>
	</g>
</g>
<g>
	<g>
		<path d="M291.852,243.674h-0.086c-2.2,0-3.948,1.786-3.948,3.994s1.826,3.995,4.034,3.995c2.201,0,3.994-1.787,3.994-3.995
			S294.052,243.674,291.852,243.674z"/>
	</g>
</g>
<g>
	<g>
		<path d="M315.82,243.674h-0.086c-2.2,0-3.948,1.786-3.948,3.994s1.826,3.995,4.034,3.995c2.2,0,3.994-1.787,3.994-3.995
			S318.02,243.674,315.82,243.674z"/>
	</g>
</g>
<g>
	<g>
		<path d="M267.885,259.652h-0.086c-2.201,0-3.948,1.787-3.948,3.996c0,2.207,1.825,3.994,4.034,3.994
			c2.199,0,3.994-1.787,3.994-3.994C271.879,261.439,270.084,259.652,267.885,259.652z"/>
	</g>
</g>
<g>
	<g>
		<path d="M291.852,259.652h-0.086c-2.2,0-3.948,1.787-3.948,3.996c0,2.207,1.826,3.994,4.034,3.994
			c2.201,0,3.994-1.787,3.994-3.994C295.846,261.439,294.052,259.652,291.852,259.652z"/>
	</g>
</g>
<g>
	<g>
		<path d="M315.82,259.652h-0.086c-2.2,0-3.948,1.787-3.948,3.996c0,2.207,1.826,3.994,4.034,3.994c2.2,0,3.994-1.787,3.994-3.994
			C319.814,261.439,318.02,259.652,315.82,259.652z"/>
	</g>
</g>
<g>
	<g>
		<path d="M267.885,275.631h-0.086c-2.201,0-3.948,1.787-3.948,3.996c0,2.207,1.825,3.994,4.034,3.994
			c2.199,0,3.994-1.787,3.994-3.994C271.879,277.418,270.084,275.631,267.885,275.631z"/>
	</g>
</g>
<g>
	<g>
		<path d="M291.852,275.631h-0.086c-2.2,0-3.948,1.787-3.948,3.996c0,2.207,1.826,3.994,4.034,3.994
			c2.201,0,3.994-1.787,3.994-3.994C295.846,277.418,294.052,275.631,291.852,275.631z"/>
	</g>
</g>
<g>
	<g>
		<path d="M507.322,187.748H3.994c-2.208,0-3.994,1.787-3.994,3.995v15.979c0,2.208,1.786,3.995,3.994,3.995h503.328
			c2.208,0,3.994-1.787,3.994-3.995v-15.979C511.316,189.535,509.53,187.748,507.322,187.748z M503.328,203.727H7.989v-7.989
			h495.339V203.727z"/>
	</g>
</g>
<g>
	<g>
		<path d="M179.759,219.705c-2.208,0-3.995,1.787-3.995,3.995v211.718h-7.989V223.7c0-2.208-1.786-3.995-3.994-3.995
			c-2.208,0-3.995,1.787-3.995,3.995v215.712c0,2.209,1.787,3.996,3.995,3.996h15.979c2.208,0,3.994-1.787,3.994-3.997V223.7
			C183.754,221.492,181.967,219.705,179.759,219.705z"/>
	</g>
</g>
<g>
	<g>
		<path d="M491.343,219.705c-2.208,0-3.995,1.787-3.995,3.995v211.718h-7.989V223.7c0-2.208-1.786-3.995-3.994-3.995
			s-3.995,1.787-3.995,3.995v215.712c0,2.209,1.787,3.996,3.995,3.996h15.979c2.208,0,3.994-1.787,3.993-3.997V223.7
			C495.337,221.492,493.551,219.705,491.343,219.705z"/>
	</g>
</g>
<g>
	<g>
		<path d="M400.495,174.406c-7.334-20.691-27.011-34.594-48.966-34.594c-21.97,0-41.655,13.911-48.981,34.61
			c-0.733,2.083,0.36,4.366,2.435,5.099c0.444,0.156,0.89,0.23,1.334,0.23c1.646,0,3.183-1.022,3.767-2.66
			c6.194-17.519,22.851-29.289,41.444-29.289c18.577,0,35.227,11.765,41.429,29.273c0.743,2.079,3.043,3.156,5.104,2.43
			C400.143,178.767,401.228,176.485,400.495,174.406z"/>
	</g>
</g>
<g>
	<g>
		<path d="M372.36,173.088c-5.305-5.914-12.896-9.308-20.831-9.308c-7.943,0-15.534,3.394-20.839,9.308
			c-1.474,1.646-1.335,4.17,0.304,5.641c1.647,1.479,4.167,1.346,5.642-0.304c7.583-8.458,22.196-8.458,29.78,0
			c0.788,0.878,1.88,1.326,2.972,1.326c0.953,0,1.905-0.335,2.668-1.022C373.695,177.258,373.835,174.734,372.36,173.088z"/>
	</g>
</g>
<g>
	<g>
		<path d="M462.716,160.275c-0.936-1.026-2.34-1.478-3.69-1.225l-1.123,0.214l1.357-9.039c0.211-1.366-0.312-2.747-1.365-3.64
			c-1.061-0.885-2.489-1.182-3.815-0.753l-1.085,0.351l0.227-9.132c0.031-1.385-0.656-2.688-1.811-3.445
			c-1.17-0.757-2.645-0.869-3.885-0.265l-1.046,0.492l-0.929-9.105c-0.139-1.377-0.982-2.586-2.23-3.187
			c-1.241-0.613-2.708-0.527-3.886,0.222l-0.96,0.612l-2.052-8.906c-0.311-1.35-1.302-2.443-2.614-2.887
			c-1.302-0.445-2.761-0.18-3.822,0.706l-0.897,0.741l-3.152-8.579c-0.483-1.3-1.599-2.259-2.957-2.536
			c-1.35-0.265-2.762,0.172-3.714,1.186l-0.771,0.823l-4.198-8.106c-0.64-1.229-1.872-2.041-3.253-2.146
			c-1.271-0.109-2.708,0.511-3.527,1.635l-0.678,0.933l-5.197-7.529c-0.779-1.143-2.051-1.748-3.487-1.725
			c-1.381,0.07-2.629,0.855-3.3,2.068l-0.555,1.014l-6.085-6.807c-0.929-1.038-2.333-1.529-3.683-1.272
			c-1.358,0.242-2.505,1.174-3.012,2.462l-0.422,1.061l-6.896-5.992c-1.053-0.912-2.496-1.209-3.808-0.799
			c-1.319,0.409-2.333,1.474-2.684,2.816l-0.289,1.119l-7.591-5.087c-1.148-0.764-2.607-0.889-3.878-0.315
			c-1.264,0.573-2.138,1.759-2.31,3.132l-0.148,1.19l-8.184-4.097c-1.234-0.616-2.716-0.553-3.886,0.176
			c-1.179,0.726-1.896,2.013-1.896,3.398v1.143l-8.622-3.031c-1.326-0.46-2.754-0.215-3.839,0.659
			c-1.076,0.87-1.622,2.235-1.451,3.608l0.141,1.14l-8.926-1.932c-1.35-0.284-2.754,0.137-3.721,1.136
			c-0.96,0.994-1.334,2.418-0.991,3.76l0.288,1.12l-9.104-0.792c-1.397-0.133-2.723,0.481-3.55,1.592
			c-0.827,1.111-1.015,2.57-0.508,3.858l0.422,1.061l-9.137,0.359c-1.381,0.054-2.636,0.818-3.323,2.024
			c-0.678,1.206-0.686,2.68-0.023,3.894l0.554,0.994l-9.012,1.502c-1.365,0.227-2.52,1.148-3.042,2.427
			c-0.522,1.279-0.344,2.742,0.468,3.862l0.671,0.924l-8.754,2.614c-1.318,0.393-2.349,1.451-2.707,2.785
			c-0.367,1.334-0.007,2.761,0.937,3.772l4.634,4.946c1.521,1.62,4.042,1.698,5.649,0.184c1.607-1.506,1.693-4.034,0.187-5.645
			l-0.226-0.238l7.974-2.38c1.241-0.37,2.224-1.318,2.637-2.547s0.211-2.579-0.554-3.628l-0.188-0.257l8.2-1.365
			c1.279-0.211,2.372-1.034,2.941-2.196c0.561-1.167,0.53-2.536-0.094-3.671l-0.156-0.273l8.31-0.324
			c1.295-0.05,2.48-0.726,3.191-1.81c0.709-1.084,0.842-2.445,0.366-3.651l-0.117-0.292l8.278,0.718
			c1.17,0.117,2.551-0.409,3.386-1.396c0.843-0.987,1.147-2.322,0.827-3.574l-0.078-0.315l8.122,1.755
			c1.279,0.27,2.599-0.078,3.542-0.959c0.952-0.874,1.428-2.161,1.264-3.445l-0.039-0.323l7.842,2.758
			c1.248,0.433,2.582,0.242,3.636-0.507c1.054-0.749,1.685-1.967,1.685-3.262v-0.316l7.443,3.726
			c1.155,0.581,2.528,0.558,3.667-0.051c1.147-0.608,1.92-1.736,2.083-3.019l0.047-0.363l6.897,4.623
			c1.07,0.718,2.427,0.874,3.644,0.413c1.209-0.46,2.122-1.478,2.45-2.734l0.085-0.328l6.281,5.458
			c0.967,0.846,2.286,1.155,3.565,0.866c1.264-0.308,2.294-1.205,2.77-2.411l0.117-0.289L392.1,98.6
			c0.866,0.968,2.153,1.475,3.433,1.307c1.287-0.144,2.427-0.909,3.051-2.044l0.155-0.292l4.729,6.846
			c0.733,1.07,1.942,1.713,3.238,1.729c1.498,0.075,2.511-0.601,3.276-1.646l0.195-0.265l3.823,7.384
			c0.601,1.152,1.716,1.944,3.004,2.119c1.272,0.207,2.574-0.285,3.464-1.225l0.202-0.219l2.863,7.795
			c0.453,1.213,1.459,2.138,2.716,2.477c1.232,0.32,2.59,0.047,3.581-0.78l0.258-0.214l1.872,8.106
			c0.289,1.264,1.179,2.309,2.38,2.801c1.185,0.487,2.566,0.374,3.659-0.328l0.265-0.167l0.843,8.274
			c0.125,1.287,0.874,2.434,2.005,3.07c1.124,0.648,2.497,0.699,3.668,0.137l0.296-0.137l-0.202,8.301
			c-0.032,1.295,0.569,2.524,1.606,3.3c1.038,0.769,2.372,0.992,3.62,0.597l0.297-0.097l-1.232,8.227
			c-0.195,1.28,0.241,2.575,1.178,3.472c0.937,0.9,2.248,1.287,3.519,1.045l0.32-0.062l-1.857,6.569
			c-0.6,2.126,0.64,4.33,2.763,4.931c0.366,0.101,0.725,0.148,1.084,0.148c1.748,0,3.347-1.15,3.845-2.912l3.604-12.788
			C463.995,162.725,463.653,161.293,462.716,160.275z"/>
	</g>
</g>
<g>
	<g>
		<path d="M150.798,356.875L30.958,221.06c-1.459-1.658-3.979-1.81-5.641-0.355c-1.654,1.459-1.81,3.983-0.351,5.637l119.84,135.821
			c0.788,0.891,1.888,1.35,2.996,1.35c0.944,0,1.88-0.328,2.645-0.997C152.101,361.057,152.257,358.529,150.798,356.875z"/>
	</g>
</g>
<g>
	<g>
		<path d="M459.386,355.525H195.738c-2.208,0-3.995,1.787-3.995,3.994c0,2.207,1.787,3.994,3.995,3.994h263.649
			c2.207,0,3.993-1.787,3.993-3.994C463.38,357.312,461.593,355.525,459.386,355.525z"/>
	</g>
</g>
<g>
	<g>
		<path d="M179.76,419.439h-15.979c-2.208,0-3.995,1.787-3.995,3.994c0,2.209,1.787,3.996,3.995,3.996h15.979
			c2.208,0,3.994-1.787,3.995-3.996C183.755,421.226,181.968,419.439,179.76,419.439z"/>
	</g>
</g>
<g>
	<g>
		<path d="M491.344,419.439h-15.979c-2.208,0-3.995,1.787-3.995,3.994c0,2.209,1.787,3.996,3.995,3.996h15.979
			c2.208,0,3.994-1.787,3.994-3.996C495.338,421.226,493.552,419.439,491.344,419.439z"/>
	</g>
</g>
<g>
	<g>
		<path d="M459.387,219.706c-2.209,0-3.995,1.787-3.995,3.995v83.887H247.669v-83.887c0-2.208-1.787-3.995-3.995-3.995
			c-2.208,0-3.995,1.787-3.995,3.995v87.883c0,2.207,1.787,3.994,3.995,3.994h215.713c2.207,0,3.994-1.787,3.994-3.994v-87.883
			C463.381,221.493,461.594,219.706,459.387,219.706z"/>
	</g>
</g>
<g>
	<g>
		<path d="M435.418,243.674h-15.979c-2.208,0-3.994,1.786-3.994,3.994v31.959c0,2.207,1.786,3.994,3.994,3.994h15.979
			c2.208,0,3.995-1.787,3.995-3.995v-31.958C439.413,245.46,437.626,243.674,435.418,243.674z M431.423,275.631h-7.989v-23.967
			h7.989V275.631z"/>
	</g>
</g>
<g>
	<g>
		<path d="M435.418,259.652h-15.979c-2.208,0-3.994,1.787-3.994,3.996c0,2.207,1.786,3.994,3.994,3.994h15.979
			c2.208,0,3.995-1.787,3.995-3.994C439.413,261.439,437.626,259.652,435.418,259.652z"/>
	</g>
</g>
<g>
	<g>
		<path d="M283.621,131.831H27.962c-2.208,0-3.995,1.786-3.995,3.994v39.939c0,2.208,1.787,3.995,3.995,3.995
			s3.995-1.787,3.995-3.995V139.82h247.669v35.944c0,2.208,1.787,3.995,3.995,3.995s3.994-1.787,3.994-3.995v-39.939
			C287.615,133.617,285.829,131.831,283.621,131.831z"/>
	</g>
</g>
<g>
	<g>
		<path d="M59.92,147.802H27.962c-2.208,0-3.995,1.786-3.995,3.994s1.787,3.995,3.995,3.995H59.92c2.208,0,3.994-1.787,3.994-3.995
			C63.914,149.589,62.128,147.802,59.92,147.802z"/>
	</g>
</g>
<g>
	<g>
		<path d="M283.621,147.802h-47.936c-11.274,0-11.961-9.995-11.984-11.977c0-2.208-1.787-3.994-3.995-3.994
			s-3.994,1.786-3.994,3.994c0,6.905,4.174,19.966,19.973,19.966h47.936c2.208,0,3.994-1.787,3.994-3.995
			C287.615,149.589,285.829,147.802,283.621,147.802z"/>
	</g>
</g>
<g>
</g>
<g>
</g>
<g>
</g>
<g>
</g>
<g>
</g>
<g>
</g>
<g>
</g>
<g>
</g>
<g>
</g>
<g>
</g>
<g>
</g>
<g>
</g>
<g>
</g>
<g>
</g>
<g>
</g>
</svg>
