<?xml version="1.0" encoding="iso-8859-1"?>
<!-- Generator: Adobe Illustrator 19.0.0, SVG Export Plug-In . SVG Version: 6.00 Build 0)  -->
<svg version="1.1" id="Capa_1" xmlns="http://www.w3.org/2000/svg" xmlns:xlink="http://www.w3.org/1999/xlink" x="0px" y="0px"
	 viewBox="0 0 511.317 511.317" style="enable-background:new 0 0 511.317 511.317;" xml:space="preserve">
<g>
	<g>
		<path d="M247.669,399.467c-2.208,0-3.995,1.785-3.995,3.994v79.893c0,2.209,1.787,3.996,3.995,3.996s3.994-1.787,3.995-3.996
			v-79.893C251.664,401.252,249.877,399.467,247.669,399.467z"/>
	</g>
</g>
<g>
	<g>
		<path d="M263.647,399.467c-2.208,0-3.994,1.785-3.994,3.994v79.893c0,2.209,1.786,3.996,3.994,3.996s3.995-1.787,3.995-3.996
			v-79.893C267.642,401.252,265.855,399.467,263.647,399.467z"/>
	</g>
</g>
<g>
	<g>
		<path d="M259.446,506.059l-7.989-23.969c-0.698-2.089-2.946-3.23-5.052-2.527c-2.091,0.701-3.222,2.965-2.524,5.055l7.989,23.969
			c0.558,1.669,2.115,2.73,3.788,2.73c0.418,0,0.843-0.062,1.264-0.203C259.013,510.413,260.144,508.149,259.446,506.059z"/>
	</g>
</g>
<g>
	<g>
		<path d="M264.912,479.563c-2.115-0.703-4.358,0.437-5.053,2.527l-7.989,23.969c-0.699,2.09,0.433,4.354,2.524,5.055
			c0.421,0.141,0.847,0.203,1.264,0.203c1.674,0,3.23-1.06,3.789-2.73l7.985-23.969
			C268.134,482.528,267.002,480.264,264.912,479.563z"/>
	</g>
</g>
<g>
	<g>
		<path d="M279.626,383.489H231.69c-2.208,0-3.995,1.785-3.995,3.994c0,2.207,1.787,3.994,3.995,3.994h47.936
			c2.208,0,3.995-1.787,3.995-3.994C283.621,385.274,281.834,383.489,279.626,383.489z"/>
	</g>
</g>
<g>
	<g>
		<path d="M223.701,359.52c-2.208,0-3.995,1.787-3.995,3.994v15.979c0,2.209,1.787,3.996,3.995,3.996
			c2.208,0,3.994-1.787,3.994-3.996v-15.979C227.695,361.307,225.909,359.52,223.701,359.52z"/>
	</g>
</g>
<g>
	<g>
		<path d="M231.69,375.499h-7.989c-2.208,0-3.995,1.787-3.995,3.994c0,2.209,1.787,3.996,3.995,3.996h7.989
			c2.208,0,3.995-1.787,3.995-3.996C235.685,377.286,233.898,375.499,231.69,375.499z"/>
	</g>
</g>
<g>
	<g>
		<path d="M231.69,375.499c-2.208,0-3.995,1.787-3.995,3.994v7.99c0,2.207,1.787,3.994,3.995,3.994s3.995-1.787,3.995-3.994v-7.99
			C235.685,377.286,233.898,375.499,231.69,375.499z"/>
	</g>
</g>
<g>
	<g>
		<path d="M247.669,359.521h-23.968c-2.208,0-3.995,1.787-3.995,3.994c0,2.209,1.787,3.996,3.995,3.996h23.968
			c2.208,0,3.994-1.788,3.995-3.996C251.664,361.308,249.877,359.521,247.669,359.521z"/>
	</g>
</g>
<g>
	<g>
		<path d="M231.69,351.531c-2.208,0-3.995,1.787-3.995,3.996v7.988c0,2.209,1.787,3.996,3.995,3.996s3.995-1.788,3.995-3.996v-7.988
			C235.685,353.318,233.898,351.531,231.69,351.531z"/>
	</g>
</g>
<g>
	<g>
		<path d="M287.615,359.52c-2.207,0-3.994,1.787-3.994,3.994v15.979c0,2.209,1.787,3.996,3.994,3.996
			c2.209,0,3.995-1.787,3.995-3.996v-15.979C291.61,361.307,289.824,359.52,287.615,359.52z"/>
	</g>
</g>
<g>
	<g>
		<path d="M287.607,359.521h-23.968c-2.208,0-3.994,1.787-3.994,3.994c0,2.209,1.786,3.996,3.994,3.996h23.968
			c2.209,0,3.995-1.788,3.995-3.996C291.602,361.308,289.816,359.521,287.607,359.521z"/>
	</g>
</g>
<g>
	<g>
		<path d="M279.626,351.531c-2.208,0-3.994,1.787-3.994,3.996v7.988c0,2.209,1.786,3.996,3.994,3.996
			c2.208,0,3.995-1.788,3.995-3.996v-7.988C283.621,353.318,281.834,351.531,279.626,351.531z"/>
	</g>
</g>
<g>
	<g>
		<path d="M287.615,375.499h-7.989c-2.208,0-3.994,1.787-3.994,3.994c0,2.209,1.786,3.996,3.994,3.996h7.989
			c2.209,0,3.995-1.787,3.995-3.996C291.61,377.286,289.824,375.499,287.615,375.499z"/>
	</g>
</g>
<g>
	<g>
		<path d="M279.626,375.499c-2.208,0-3.994,1.787-3.994,3.994v7.99c0,2.207,1.786,3.994,3.994,3.994
			c2.208,0,3.995-1.787,3.995-3.994v-7.99C283.621,377.286,281.834,375.499,279.626,375.499z"/>
	</g>
</g>
<g>
	<g>
		<path d="M271.637,335.552H239.68c-2.208,0-3.995,1.787-3.995,3.996c0,2.207,1.787,3.994,3.995,3.994h31.957
			c2.208,0,3.995-1.787,3.995-3.994C275.632,337.339,273.845,335.552,271.637,335.552z"/>
	</g>
</g>
<g>
	<g>
		<path d="M287.615,319.573h-63.914c-2.208,0-3.995,1.787-3.995,3.996c0,2.207,1.787,3.994,3.995,3.994h63.914
			c2.209,0,3.995-1.787,3.995-3.994C291.61,321.36,289.824,319.573,287.615,319.573z"/>
	</g>
</g>
<g>
	<g>
		<path d="M287.615,303.595h-63.914c-2.208,0-3.995,1.787-3.995,3.994c0,2.209,1.787,3.996,3.995,3.996h63.914
			c2.209,0,3.995-1.787,3.995-3.996C291.61,305.382,289.824,303.595,287.615,303.595z"/>
	</g>
</g>
<g>
	<g>
		<path d="M233.477,327.985c-1.978-0.985-4.369-0.188-5.36,1.785l-7.989,15.979c-0.987,1.974-0.188,4.377,1.786,5.361
			c0.574,0.281,1.182,0.42,1.783,0.42c1.467,0,2.875-0.81,3.578-2.207l7.989-15.979C236.251,331.37,235.451,328.967,233.477,327.985
			z"/>
	</g>
</g>
<g>
	<g>
		<path d="M291.189,345.749l-7.99-15.979c-0.99-1.973-3.385-2.769-5.359-1.785c-1.975,0.982-2.769,3.384-1.787,5.359l7.989,15.979
			c0.702,1.396,2.114,2.207,3.573,2.207c0.602,0,1.21-0.139,1.787-0.42C291.376,350.126,292.171,347.724,291.189,345.749z"/>
	</g>
</g>
<g>
	<g>
		<path d="M223.701,287.616c-2.208,0-3.995,1.787-3.995,3.994v15.979c0,2.209,1.787,3.996,3.995,3.996
			c2.208,0,3.994-1.787,3.994-3.996V291.61C227.695,289.403,225.909,287.616,223.701,287.616z"/>
	</g>
</g>
<g>
	<g>
		<path d="M287.615,287.616c-2.207,0-3.994,1.787-3.994,3.994v15.979c0,2.209,1.787,3.996,3.994,3.996
			c2.209,0,3.995-1.787,3.995-3.996V291.61C291.61,289.403,289.824,287.616,287.615,287.616z"/>
	</g>
</g>
<g>
	<g>
		<path d="M247.669,359.521c-2.208,0-3.995,1.787-3.995,3.994v7.99c0,2.207,1.787,3.994,3.995,3.994s3.994-1.787,3.995-3.994v-7.99
			C251.664,361.308,249.877,359.521,247.669,359.521z"/>
	</g>
</g>
<g>
	<g>
		<path d="M263.647,359.521c-2.208,0-3.994,1.787-3.994,3.994v7.99c0,2.207,1.786,3.994,3.994,3.994s3.995-1.787,3.995-3.994v-7.99
			C267.642,361.308,265.855,359.521,263.647,359.521z"/>
	</g>
</g>
<g>
	<g>
		<path d="M233.477,272.059c-1.978-0.984-4.369-0.188-5.36,1.787l-7.989,15.979c-0.987,1.972-0.188,4.377,1.786,5.359
			c0.574,0.281,1.182,0.422,1.783,0.422c1.467,0,2.875-0.812,3.578-2.209l7.989-15.979
			C236.251,275.444,235.451,273.041,233.477,272.059z"/>
	</g>
</g>
<g>
	<g>
		<path d="M291.189,289.825l-7.99-15.979c-0.99-1.975-3.385-2.771-5.359-1.787c-1.975,0.982-2.769,3.384-1.787,5.359l7.989,15.979
			c0.702,1.397,2.114,2.209,3.573,2.209c0.602,0,1.21-0.14,1.787-0.422C291.376,294.202,292.171,291.798,291.189,289.825z"/>
	</g>
</g>
<g>
	<g>
		<path d="M231.69,215.712c-2.208,0-3.995,1.787-3.995,3.995v55.925c0,2.209,1.787,3.996,3.995,3.996s3.995-1.787,3.995-3.996
			v-55.925C235.685,217.499,233.898,215.712,231.69,215.712z"/>
	</g>
</g>
<g>
	<g>
		<path d="M279.626,215.712c-2.208,0-3.994,1.787-3.994,3.995v55.925c0,2.209,1.786,3.996,3.994,3.996
			c2.208,0,3.995-1.787,3.995-3.996v-55.925C283.621,217.499,281.834,215.712,279.626,215.712z"/>
	</g>
</g>
<g>
	<g>
		<path d="M295.605,199.734h-79.894c-2.208,0-3.995,1.786-3.995,3.994c0,2.208,1.787,3.995,3.995,3.995h79.894
			c2.207,0,3.994-1.787,3.994-3.995C299.599,201.521,297.812,199.734,295.605,199.734z"/>
	</g>
</g>
<g>
	<g>
		<path d="M295.605,175.765c-2.209,0-3.995,1.787-3.995,3.995v23.968c0,2.208,1.786,3.995,3.995,3.995
			c2.207,0,3.994-1.787,3.994-3.995V179.76C299.599,177.552,297.812,175.765,295.605,175.765z"/>
	</g>
</g>
<g>
	<g>
		<path d="M215.712,175.765c-2.208,0-3.995,1.787-3.995,3.995v23.968c0,2.208,1.787,3.995,3.995,3.995
			c2.208,0,3.994-1.787,3.994-3.995V179.76C219.706,177.552,217.92,175.765,215.712,175.765z"/>
	</g>
</g>
<g>
	<g>
		<path d="M337.876,120.585c-1.803-1.279-4.291-0.874-5.579,0.929l-39.946,55.925c-1.279,1.795-0.866,4.291,0.929,5.571
			c0.71,0.503,1.52,0.745,2.325,0.745c1.241,0,2.473-0.581,3.253-1.674l39.946-55.925
			C340.084,124.361,339.67,121.864,337.876,120.585z"/>
	</g>
</g>
<g>
	<g>
		<path d="M218.782,177.201l-39.947-47.937c-1.412-1.697-3.932-1.919-5.629-0.511c-1.693,1.412-1.923,3.932-0.511,5.629
			l39.947,47.937c0.792,0.948,1.927,1.436,3.074,1.436c0.901,0,1.805-0.304,2.555-0.925
			C219.964,181.418,220.194,178.897,218.782,177.201z"/>
	</g>
</g>
<g>
	<g>
		<path d="M207.722,95.872c-2.208,0-3.995,1.786-3.995,3.994v36.756c0,2.208,1.787,3.995,3.995,3.995
			c2.208,0,3.995-1.787,3.994-3.995V99.866C211.716,97.658,209.93,95.872,207.722,95.872z"/>
	</g>
</g>
<g>
	<g>
		<path d="M303.594,95.872c-2.207,0-3.994,1.786-3.994,3.994v33.557c0,2.208,1.787,3.995,3.994,3.995
			c2.209,0,3.995-1.786,3.995-3.995V99.866C307.589,97.658,305.803,95.872,303.594,95.872z"/>
	</g>
</g>
<g>
	<g>
		<path d="M255.658,215.712c-2.208,0-3.995,1.787-3.995,3.995v71.903c0,2.209,1.787,3.996,3.995,3.996
			c2.208,0,3.995-1.787,3.995-3.996v-71.903C259.653,217.499,257.866,215.712,255.658,215.712z"/>
	</g>
</g>
<g>
	<g>
		<path d="M303.594,95.873h-95.871c-2.208,0-3.995,1.786-3.995,3.994s1.787,3.995,3.995,3.995h95.871
			c2.209,0,3.995-1.787,3.995-3.995S305.803,95.873,303.594,95.873z"/>
	</g>
</g>
<g>
	<g>
		<path d="M335.552,15.978c-2.208,0-3.995,1.787-3.995,3.995v103.861c0,2.208,1.787,3.995,3.995,3.995s3.995-1.786,3.995-3.995
			V19.973C339.547,17.765,337.76,15.978,335.552,15.978z"/>
	</g>
</g>
<g>
	<g>
		<path d="M175.764,15.978c-2.208,0-3.994,1.787-3.994,3.995v111.852c0,2.208,1.786,3.994,3.994,3.994
			c2.208,0,3.996-1.786,3.995-3.995V19.973C179.759,17.765,177.972,15.978,175.764,15.978z"/>
	</g>
</g>
<g>
	<g>
		<path d="M319.574,0h-127.83c-11.013,0-19.973,8.961-19.973,19.973c0,2.208,1.786,3.995,3.994,3.995s3.995-1.787,3.995-3.995
			c0-6.609,5.376-11.984,11.984-11.984h127.83c6.608,0,11.983,5.376,11.983,11.984c0,2.208,1.787,3.995,3.995,3.995
			s3.995-1.787,3.996-3.995C339.548,8.961,330.591,0,319.574,0z"/>
	</g>
</g>
<g>
	<g>
		<path d="M207.722,0c-2.208,0-3.995,1.787-3.995,3.995v15.978c0,2.208,1.787,3.995,3.995,3.995c2.208,0,3.995-1.787,3.994-3.994
			V3.995C211.716,1.787,209.93,0,207.722,0z"/>
	</g>
</g>
<g>
	<g>
		<path d="M231.69,0c-2.208,0-3.995,1.787-3.995,3.995v15.978c0,2.208,1.787,3.995,3.995,3.995s3.995-1.787,3.995-3.994V3.995
			C235.685,1.787,233.898,0,231.69,0z"/>
	</g>
</g>
<g>
	<g>
		<path d="M255.658,0c-2.208,0-3.995,1.787-3.995,3.995v15.978c0,2.208,1.787,3.995,3.995,3.995c2.208,0,3.995-1.787,3.995-3.994
			V3.995C259.653,1.787,257.866,0,255.658,0z"/>
	</g>
</g>
<g>
	<g>
		<path d="M279.626,0c-2.208,0-3.994,1.787-3.994,3.995v15.978c0,2.208,1.786,3.995,3.994,3.995c2.208,0,3.995-1.787,3.995-3.994
			V3.995C283.621,1.787,281.834,0,279.626,0z"/>
	</g>
</g>
<g>
	<g>
		<path d="M303.594,0c-2.207,0-3.994,1.787-3.994,3.995v15.978c0,2.208,1.787,3.995,3.994,3.995c2.209,0,3.995-1.787,3.995-3.994
			V3.995C307.589,1.787,305.803,0,303.594,0z"/>
	</g>
</g>
<g>
	<g>
		<path d="M303.594,47.936h-95.871c-2.208,0-3.995,1.787-3.995,3.995c0,2.208,1.787,3.995,3.995,3.995h95.871
			c2.209,0,3.995-1.787,3.995-3.995C307.589,49.723,305.803,47.936,303.594,47.936z"/>
	</g>
</g>
<g>
	<g>
		<path d="M231.69,175.765c-2.208,0-3.995,1.787-3.995,3.995v7.989c0,2.208,1.787,3.995,3.995,3.995s3.995-1.787,3.995-3.995v-7.989
			C235.685,177.552,233.898,175.765,231.69,175.765z"/>
	</g>
</g>
<g>
	<g>
		<path d="M279.626,175.765c-2.208,0-3.994,1.787-3.994,3.995v7.989c0,2.208,1.786,3.995,3.994,3.995
			c2.208,0,3.995-1.787,3.995-3.995v-7.989C283.621,177.552,281.834,175.765,279.626,175.765z"/>
	</g>
</g>
<g>
	<g>
		<path d="M279.626,175.765H231.69c-2.208,0-3.995,1.787-3.995,3.995c0,2.208,1.787,3.995,3.995,3.995h47.936
			c2.208,0,3.995-1.787,3.995-3.995C283.621,177.552,281.834,175.765,279.626,175.765z"/>
	</g>
</g>
<g>
	<g>
		<path d="M287.615,111.85h-63.914c-2.208,0-3.995,1.787-3.995,3.995s1.787,3.995,3.995,3.995h63.914
			c2.209,0,3.995-1.787,3.995-3.995S289.824,111.85,287.615,111.85z"/>
	</g>
</g>
<g>
	<g>
		<path d="M359.519,47.936H343.54c-2.208,0-3.994,1.787-3.994,3.995c0,2.208,1.786,3.995,3.994,3.995h15.979
			c2.208,0,3.995-1.787,3.995-3.995C363.514,49.723,361.727,47.936,359.519,47.936z"/>
	</g>
</g>
<g>
	<g>
		<path d="M359.519,87.883H343.54c-2.208,0-3.994,1.786-3.994,3.994c0,2.208,1.786,3.995,3.994,3.995h15.979
			c2.208,0,3.995-1.787,3.995-3.995C363.514,89.669,361.727,87.883,359.519,87.883z"/>
	</g>
</g>
<g>
	<g>
		<path d="M359.519,47.936c-2.208,0-3.994,1.787-3.994,3.995v39.946c0,2.208,1.786,3.995,3.994,3.995s3.995-1.787,3.995-3.995
			V51.931C363.514,49.723,361.727,47.936,359.519,47.936z"/>
	</g>
</g>
<g>
	<g>
		<path d="M455.392,55.925h-87.883c-2.208,0-3.994,1.787-3.994,3.995s1.786,3.995,3.994,3.995h87.882
			c2.208,0,3.996-1.787,3.996-3.995S457.6,55.925,455.392,55.925z"/>
	</g>
</g>
<g>
	<g>
		<path d="M463.381,79.894h-95.872c-2.208,0-3.994,1.786-3.994,3.994s1.786,3.995,3.994,3.995h95.872
			c2.208,0,3.995-1.787,3.995-3.995S465.589,79.894,463.381,79.894z"/>
	</g>
</g>
<g>
	<g>
		<path d="M467.173,82.624l-7.989-23.968c-0.702-2.095-2.965-3.207-5.056-2.524c-2.09,0.695-3.222,2.957-2.528,5.052l7.989,23.968
			c0.562,1.673,2.122,2.731,3.792,2.731c0.422,0,0.842-0.066,1.264-0.207C466.736,86.981,467.867,84.719,467.173,82.624z"/>
	</g>
</g>
<g>
	<g>
		<path d="M391.476,55.925c-2.207,0-3.994,1.787-3.994,3.995v7.989c0,2.208,1.787,3.995,3.994,3.995
			c2.209,0,3.995-1.787,3.995-3.995V59.92C395.471,57.712,393.685,55.925,391.476,55.925z"/>
	</g>
</g>
<g>
	<g>
		<path d="M407.455,55.925c-2.207,0-3.994,1.787-3.994,3.995v7.989c0,2.208,1.787,3.995,3.994,3.995
			c2.209,0,3.995-1.787,3.995-3.995V59.92C411.45,57.712,409.664,55.925,407.455,55.925z"/>
	</g>
</g>
<g>
	<g>
		<path d="M423.434,55.925c-2.208,0-3.995,1.787-3.995,3.995v7.989c0,2.208,1.787,3.995,3.995,3.995s3.995-1.787,3.994-3.995V59.92
			C427.428,57.712,425.642,55.925,423.434,55.925z"/>
	</g>
</g>
<g>
	<g>
		<path d="M167.775,47.936h-15.979c-2.208,0-3.995,1.787-3.995,3.995c0,2.208,1.787,3.995,3.995,3.995h15.979
			c2.208,0,3.995-1.787,3.995-3.995C171.77,49.723,169.983,47.936,167.775,47.936z"/>
	</g>
</g>
<g>
	<g>
		<path d="M167.775,87.883h-15.979c-2.208,0-3.995,1.786-3.995,3.994c0,2.208,1.787,3.995,3.995,3.995h15.979
			c2.208,0,3.995-1.787,3.995-3.995C171.77,89.669,169.983,87.883,167.775,87.883z"/>
	</g>
</g>
<g>
	<g>
		<path d="M151.797,47.936c-2.208,0-3.995,1.787-3.995,3.995v39.946c0,2.208,1.787,3.995,3.995,3.995s3.995-1.787,3.995-3.995
			V51.931C155.792,49.723,154.005,47.936,151.797,47.936z"/>
	</g>
</g>
<g>
	<g>
		<path d="M143.808,55.925H55.925c-2.208,0-3.994,1.787-3.994,3.995s1.786,3.995,3.994,3.995h87.882
			c2.208,0,3.996-1.787,3.996-3.995S146.016,55.925,143.808,55.925z"/>
	</g>
</g>
<g>
	<g>
		<path d="M143.807,79.894H47.935c-2.208,0-3.995,1.786-3.995,3.994s1.787,3.995,3.995,3.995h95.872
			c2.208,0,3.995-1.787,3.995-3.995S146.015,79.894,143.807,79.894z"/>
	</g>
</g>
<g>
	<g>
		<path d="M57.188,56.132c-2.103-0.703-4.353,0.433-5.052,2.524l-7.989,23.968c-0.699,2.095,0.433,4.358,2.524,5.052
			c0.421,0.141,0.847,0.207,1.264,0.207c1.674,0,3.231-1.057,3.788-2.731l7.989-23.968C60.41,59.089,59.279,56.826,57.188,56.132z"
			/>
	</g>
</g>
<g>
	<g>
		<path d="M119.84,55.925c-2.208,0-3.995,1.787-3.995,3.995v7.989c0,2.208,1.787,3.995,3.995,3.995c2.208,0,3.994-1.787,3.994-3.995
			V59.92C123.834,57.712,122.048,55.925,119.84,55.925z"/>
	</g>
</g>
<g>
	<g>
		<path d="M103.861,55.925c-2.208,0-3.995,1.787-3.995,3.995v7.989c0,2.208,1.787,3.995,3.995,3.995s3.994-1.787,3.994-3.995V59.92
			C107.855,57.712,106.069,55.925,103.861,55.925z"/>
	</g>
</g>
<g>
	<g>
		<path d="M87.882,55.925c-2.208,0-3.995,1.787-3.995,3.995v7.989c0,2.208,1.787,3.995,3.995,3.995s3.995-1.787,3.995-3.995V59.92
			C91.877,57.712,90.09,55.925,87.882,55.925z"/>
	</g>
</g>
<g>
	<g>
		<path d="M119.84,95.873c-2.208,0-3.995,1.786-3.995,3.994v39.947c0,2.208,1.787,3.994,3.995,3.994
			c2.208,0,3.994-1.786,3.994-3.994V99.867C123.834,97.659,122.048,95.873,119.84,95.873z"/>
	</g>
</g>
<g>
	<g>
		<path d="M135.818,95.872c-2.208,0-3.995,1.786-3.995,3.994v47.937c0,2.208,1.787,3.994,3.995,3.994s3.995-1.786,3.995-3.994
			V99.866C139.813,97.658,138.026,95.872,135.818,95.872z"/>
	</g>
</g>
<g>
	<g>
		<path d="M138.214,144.607c-1.756-1.322-4.264-0.971-5.591,0.8l-47.936,63.915c-1.326,1.763-0.968,4.268,0.8,5.59
			c0.718,0.538,1.557,0.8,2.391,0.8c1.218,0,2.415-0.55,3.199-1.6l47.936-63.915C140.34,148.434,139.981,145.93,138.214,144.607z"/>
	</g>
</g>
<g>
	<g>
		<path d="M121.822,136.346c-1.923-1.108-4.362-0.433-5.45,1.486l-31.958,55.925c-1.096,1.915-0.429,4.358,1.486,5.45
			c0.624,0.359,1.307,0.527,1.978,0.527c1.389,0,2.735-0.722,3.473-2.013l31.957-55.925
			C124.405,139.881,123.738,137.438,121.822,136.346z"/>
	</g>
</g>
<g>
	<g>
		<path d="M87.882,191.745c-2.208,0-3.995,1.786-3.995,3.994v15.978c0,2.208,1.787,3.995,3.995,3.995s3.995-1.786,3.995-3.994
			v-15.979C91.877,193.531,90.09,191.745,87.882,191.745z"/>
	</g>
</g>
<g>
</g>
<g>
</g>
<g>
</g>
<g>
</g>
<g>
</g>
<g>
</g>
<g>
</g>
<g>
</g>
<g>
</g>
<g>
</g>
<g>
</g>
<g>
</g>
<g>
</g>
<g>
</g>
<g>
</g>
</svg>
