<svg xmlns="http://www.w3.org/2000/svg" width="48.38" height="50" viewBox="0 0 48.38 50">
  <metadata><?xpacket begin="﻿" id="W5M0MpCehiHzreSzNTczkc9d"?>
<x:xmpmeta xmlns:x="adobe:ns:meta/" x:xmptk="Adobe XMP Core 5.6-c138 79.159824, 2016/09/14-01:09:01        ">
   <rdf:RDF xmlns:rdf="http://www.w3.org/1999/02/22-rdf-syntax-ns#">
      <rdf:Description rdf:about=""/>
   </rdf:RDF>
</x:xmpmeta>
                                                                                                    
                                                                                                    
                                                                                                    
                                                                                                    
                                                                                                    
                                                                                                    
                                                                                                    
                                                                                                    
                                                                                                    
                                                                                                    
                                                                                                    
                                                                                                    
                                                                                                    
                                                                                                    
                                                                                                    
                                                                                                    
                                                                                                    
                                                                                                    
                                                                                                    
                                                                                                    
                           
<?xpacket end="w"?></metadata>
<defs>
    <style>
      .cls-1 {
        fill: #ffbf00;
        fill-rule: evenodd;
      }
    </style>
  </defs>
  <path class="cls-1" d="M5991.91,393.74a4.586,4.586,0,0,1-1,7.026,4.531,4.531,0,0,1,.64,2.337,4.6,4.6,0,0,1-2.2,3.924,4.536,4.536,0,0,1,.64,2.337,4.6,4.6,0,0,1-4.6,4.6h-4.64c-1.12,0-2.19.01-3.23,0.019-0.94.009-1.85,0.018-2.74,0.018-5.21,0-9.76-.3-14.98-2.566a4.616,4.616,0,0,1-4.12,2.548h-9.39a1.47,1.47,0,0,1-1.47-1.468V387.468a1.47,1.47,0,0,1,1.47-1.468h12.52a1.464,1.464,0,0,1,1.47,1.468v0.776c4.83-2.351,12.06-6.215,12.68-13.713a3.153,3.153,0,0,1,3.11-2.834h0.04a6.212,6.212,0,0,1,6.11,6.2h0v0.493a14.619,14.619,0,0,1-1.98,7.59h8.34A4.59,4.59,0,0,1,5991.91,393.74Zm-34.56-4.805h-9.59v22.112h3.33v-4.8a1.465,1.465,0,1,1,2.93,0v4.8h1.66a1.67,1.67,0,0,0,1.67-1.664V388.935Zm31.23-.019h-14.09a1.468,1.468,0,1,1,0-2.935h2.33a12.627,12.627,0,0,0,2.46-7.59V377.9a3.279,3.279,0,0,0-3.21-3.267h0a0.212,0.212,0,0,0-.18.142,16.006,16.006,0,0,1-6.07,11.028,41.419,41.419,0,0,1-9.05,5.466c-0.16.077-.32,0.152-0.47,0.226h0v16.949c5.84,2.712,10.65,2.666,17.19,2.6,1.04-.01,2.12-0.02,3.26-0.02h4.64a1.663,1.663,0,0,0,0-3.326,1.468,1.468,0,1,1,0-2.935h1.57a1.664,1.664,0,0,0,0-3.327h-1.51a1.468,1.468,0,1,1,0-2.935h3.07a1.663,1.663,0,0,0,0-3.326h-3.07a1.468,1.468,0,1,1,0-2.936h3.13A1.663,1.663,0,0,0,5988.58,388.916Zm1.54-11.134h-3.13a1.468,1.468,0,0,1,0-2.935h3.13A1.468,1.468,0,1,1,5990.12,377.782Zm-6.55-8.868a1.467,1.467,0,1,1-2.54-1.468l1.56-2.711a1.467,1.467,0,1,1,2.54,1.467Zm-9.93.537a1.487,1.487,0,0,1-.74.2,1.469,1.469,0,0,1-1.27-.734l-1.56-2.712a1.467,1.467,0,1,1,2.54-1.467l1.56,2.711A1.463,1.463,0,0,1,5973.64,369.451Zm-5.43,8.331h-3.13a1.468,1.468,0,1,1,0-2.935h3.13A1.468,1.468,0,0,1,5968.21,377.782Z" transform="translate(-5944.81 -364)"/>
</svg>
